<svg width="14" height="14" viewBox="0 0 14 14" fill="none" xmlns="http://www.w3.org/2000/svg">
<path d="M12.8669 3.6975C13.5607 5.14863 13.6924 6.80533 13.2366 8.34786C12.7808 9.89039 11.7697 11.2094 10.3986 12.0503C9.02745 12.8912 7.39342 13.1944 5.81186 12.9014C4.23031 12.6084 2.81335 11.74 1.83445 10.4637C0.855559 9.18738 0.384127 7.59372 0.511143 5.99027C0.638159 4.38683 1.35462 2.88727 2.52225 1.78101C3.68987 0.674743 5.22589 0.0402031 6.83386 -0.000147799C8.44182 -0.0404987 10.0077 0.5162 11.2294 1.5625L12.6463 0.145005C12.7401 0.0511843 12.8673 -0.00152336 13 -0.00152336C13.1327 -0.00152336 13.2599 0.0511843 13.3538 0.145005C13.4476 0.238825 13.5003 0.366073 13.5003 0.498755C13.5003 0.631437 13.4476 0.758684 13.3538 0.852505L7.35375 6.8525C7.25993 6.94633 7.13268 6.99903 7 6.99903C6.86732 6.99903 6.74007 6.94633 6.64625 6.8525C6.55243 6.75868 6.49972 6.63144 6.49972 6.49875C6.49972 6.36607 6.55243 6.23882 6.64625 6.145L8.37875 4.4125C7.90922 4.10198 7.34863 3.959 6.78773 4.00672C6.22683 4.05444 5.69845 4.29007 5.28813 4.67546C4.87781 5.06084 4.60957 5.57343 4.52682 6.13024C4.44408 6.68705 4.55168 7.2555 4.8322 7.74355C5.11272 8.2316 5.54975 8.61069 6.07253 8.81945C6.59532 9.02821 7.17326 9.05443 7.7128 8.89385C8.25234 8.73328 8.72189 8.39531 9.04545 7.93466C9.369 7.47401 9.52762 6.91765 9.49563 6.35563C9.49193 6.28997 9.50121 6.22422 9.52292 6.16215C9.54464 6.10007 9.57837 6.04288 9.62219 5.99384C9.666 5.9448 9.71905 5.90487 9.7783 5.87633C9.83755 5.84779 9.90184 5.8312 9.9675 5.8275C10.1001 5.82005 10.2303 5.86557 10.3293 5.95406C10.3783 5.99788 10.4183 6.05093 10.4468 6.11018C10.4753 6.16943 10.4919 6.23372 10.4956 6.29938C10.5412 7.09487 10.314 7.8821 9.85156 8.53096C9.38911 9.17982 8.71911 9.65147 7.95229 9.86795C7.18547 10.0844 6.36774 10.0328 5.63425 9.72157C4.90075 9.41034 4.29541 8.85815 3.91826 8.15627C3.54112 7.45439 3.41475 6.64483 3.56004 5.86139C3.70533 5.07796 4.11359 4.36755 4.71734 3.84758C5.32108 3.32762 6.08418 3.02921 6.88049 3.0017C7.67681 2.97418 8.45868 3.2192 9.09688 3.69625L10.5188 2.27438C9.47675 1.40925 8.15186 0.959606 6.79854 1.0118C5.44521 1.064 4.15889 1.61436 3.18662 2.55717C2.21435 3.49999 1.62469 4.76878 1.5309 6.11985C1.43711 7.47093 1.8458 8.80903 2.67848 9.87714C3.51115 10.9453 4.70909 11.6681 6.04222 11.9067C7.37535 12.1454 8.74967 11.8832 9.90121 11.1703C11.0527 10.4575 11.9003 9.34428 12.2811 8.04459C12.6619 6.7449 12.5491 5.35034 11.9644 4.12875C11.9072 4.00908 11.8999 3.87158 11.9441 3.74652C11.9883 3.62145 12.0803 3.51907 12.2 3.46188C12.3197 3.40469 12.4572 3.39739 12.5822 3.44158C12.7073 3.48577 12.8097 3.57783 12.8669 3.6975Z" fill="white"/>
</svg>
