<svg width="11" height="8" viewBox="0 0 11 8" fill="none" xmlns="http://www.w3.org/2000/svg">
<path d="M10.398 1.27299L4.39797 7.27299C4.34571 7.32543 4.28361 7.36704 4.21524 7.39543C4.14687 7.42382 4.07356 7.43843 3.99953 7.43843C3.9255 7.43843 3.85219 7.42382 3.78382 7.39543C3.71545 7.36704 3.65335 7.32543 3.60109 7.27299L0.976092 4.64799C0.923769 4.59566 0.882264 4.53355 0.853946 4.46518C0.825629 4.39682 0.811054 4.32355 0.811054 4.24955C0.811054 4.17555 0.825629 4.10228 0.853946 4.03392C0.882264 3.96555 0.923769 3.90344 0.976092 3.85111C1.02842 3.79879 1.09053 3.75728 1.1589 3.72897C1.22726 3.70065 1.30053 3.68607 1.37453 3.68607C1.44853 3.68607 1.5218 3.70065 1.59016 3.72897C1.65853 3.75728 1.72064 3.79879 1.77297 3.85111L4 6.07814L9.60203 0.47705C9.7077 0.371378 9.85102 0.312012 10.0005 0.312012C10.1499 0.312012 10.2932 0.371378 10.3989 0.47705C10.5046 0.582722 10.5639 0.726044 10.5639 0.875488C10.5639 1.02493 10.5046 1.16825 10.3989 1.27393L10.398 1.27299Z" fill="white"/>
</svg>
