<svg width="14" height="13" viewBox="0 0 14 13" fill="none" xmlns="http://www.w3.org/2000/svg">
<path d="M1 2.5C1 2.36739 1.05268 2.24021 1.14645 2.14645C1.24022 2.05268 1.36739 2 1.5 2H2.5V1C2.5 0.867392 2.55268 0.740215 2.64645 0.646447C2.74022 0.552679 2.86739 0.5 3 0.5C3.13261 0.5 3.25979 0.552679 3.35355 0.646447C3.44732 0.740215 3.5 0.867392 3.5 1V2H4.5C4.63261 2 4.75979 2.05268 4.85355 2.14645C4.94732 2.24021 5 2.36739 5 2.5C5 2.63261 4.94732 2.75979 4.85355 2.85355C4.75979 2.94732 4.63261 3 4.5 3H3.5V4C3.5 4.13261 3.44732 4.25979 3.35355 4.35355C3.25979 4.44732 3.13261 4.5 3 4.5C2.86739 4.5 2.74022 4.44732 2.64645 4.35355C2.55268 4.25979 2.5 4.13261 2.5 4V3H1.5C1.36739 3 1.24022 2.94732 1.14645 2.85355C1.05268 2.75979 1 2.63261 1 2.5ZM9.5 10.5H9V10C9 9.86739 8.94732 9.74021 8.85355 9.64645C8.75979 9.55268 8.63261 9.5 8.5 9.5C8.36739 9.5 8.24022 9.55268 8.14645 9.64645C8.05268 9.74021 8 9.86739 8 10V10.5H7.5C7.36739 10.5 7.24022 10.5527 7.14645 10.6464C7.05268 10.7402 7 10.8674 7 11C7 11.1326 7.05268 11.2598 7.14645 11.3536C7.24022 11.4473 7.36739 11.5 7.5 11.5H8V12C8 12.1326 8.05268 12.2598 8.14645 12.3536C8.24022 12.4473 8.36739 12.5 8.5 12.5C8.63261 12.5 8.75979 12.4473 8.85355 12.3536C8.94732 12.2598 9 12.1326 9 12V11.5H9.5C9.63261 11.5 9.75979 11.4473 9.85355 11.3536C9.94732 11.2598 10 11.1326 10 11C10 10.8674 9.94732 10.7402 9.85355 10.6464C9.75979 10.5527 9.63261 10.5 9.5 10.5ZM13 7.5H12V6.5C12 6.36739 11.9473 6.24021 11.8536 6.14645C11.7598 6.05268 11.6326 6 11.5 6C11.3674 6 11.2402 6.05268 11.1464 6.14645C11.0527 6.24021 11 6.36739 11 6.5V7.5H10C9.86739 7.5 9.74022 7.55268 9.64645 7.64645C9.55268 7.74021 9.5 7.86739 9.5 8C9.5 8.13261 9.55268 8.25979 9.64645 8.35355C9.74022 8.44732 9.86739 8.5 10 8.5H11V9.5C11 9.63261 11.0527 9.75979 11.1464 9.85355C11.2402 9.94732 11.3674 10 11.5 10C11.6326 10 11.7598 9.94732 11.8536 9.85355C11.9473 9.75979 12 9.63261 12 9.5V8.5H13C13.1326 8.5 13.2598 8.44732 13.3536 8.35355C13.4473 8.25979 13.5 8.13261 13.5 8C13.5 7.86739 13.4473 7.74021 13.3536 7.64645C13.2598 7.55268 13.1326 7.5 13 7.5ZM11.7069 3.5L3 12.2069C2.81248 12.3943 2.55823 12.4995 2.29313 12.4995C2.02802 12.4995 1.77377 12.3943 1.58625 12.2069L0.292501 10.9144C0.199618 10.8215 0.125938 10.7113 0.0756693 10.5899C0.0254003 10.4686 -0.000473022 10.3385 -0.000473022 10.2072C-0.000473022 10.0758 0.0254003 9.94579 0.0756693 9.82445C0.125938 9.70311 0.199618 9.59286 0.292501 9.5L9 0.793125C9.09286 0.700242 9.20311 0.626562 9.32445 0.576293C9.44579 0.526024 9.57585 0.500151 9.70719 0.500151C9.83853 0.500151 9.96858 0.526024 10.0899 0.576293C10.2113 0.626562 10.3215 0.700242 10.4144 0.793125L11.7069 2.08562C11.7998 2.17849 11.8734 2.28874 11.9237 2.41008C11.974 2.53142 11.9999 2.66147 11.9999 2.79281C11.9999 2.92415 11.974 3.05421 11.9237 3.17555C11.8734 3.29689 11.7998 3.40714 11.7069 3.5ZM8.2925 5.5L7 4.20687L1 10.2069L2.2925 11.5L8.2925 5.5ZM11 2.79313L9.70688 1.5L7.70688 3.5L9 4.79313L11 2.79313Z" fill="white"/>
</svg>
