<svg width="12" height="11" viewBox="0 0 12 11" fill="none" xmlns="http://www.w3.org/2000/svg">
<path d="M12 5.50003C12 5.63264 11.9473 5.75982 11.8536 5.85359C11.7598 5.94736 11.6326 6.00003 11.5 6.00003H6C5.86739 6.00003 5.74022 5.94736 5.64645 5.85359C5.55268 5.75982 5.5 5.63264 5.5 5.50003C5.5 5.36743 5.55268 5.24025 5.64645 5.14648C5.74022 5.05271 5.86739 5.00003 6 5.00003H11.5C11.6326 5.00003 11.7598 5.05271 11.8536 5.14648C11.9473 5.24025 12 5.36743 12 5.50003ZM6 2.00003H11.5C11.6326 2.00003 11.7598 1.94736 11.8536 1.85359C11.9473 1.75982 12 1.63264 12 1.50003C12 1.36743 11.9473 1.24025 11.8536 1.14648C11.7598 1.05271 11.6326 1.00003 11.5 1.00003H6C5.86739 1.00003 5.74022 1.05271 5.64645 1.14648C5.55268 1.24025 5.5 1.36743 5.5 1.50003C5.5 1.63264 5.55268 1.75982 5.64645 1.85359C5.74022 1.94736 5.86739 2.00003 6 2.00003ZM11.5 9.00003H6C5.86739 9.00003 5.74022 9.05271 5.64645 9.14648C5.55268 9.24025 5.5 9.36743 5.5 9.50003C5.5 9.63264 5.55268 9.75982 5.64645 9.85359C5.74022 9.94736 5.86739 10 6 10H11.5C11.6326 10 11.7598 9.94736 11.8536 9.85359C11.9473 9.75982 12 9.63264 12 9.50003C12 9.36743 11.9473 9.24025 11.8536 9.14648C11.7598 9.05271 11.6326 9.00003 11.5 9.00003ZM3.14625 0.146284L1.5 1.79316L0.853753 1.14628C0.759933 1.05246 0.632685 0.999756 0.500003 0.999756C0.367321 0.999756 0.240074 1.05246 0.146253 1.14628C0.052433 1.2401 -0.000274657 1.36735 -0.000274658 1.50003C-0.000274659 1.63272 0.052433 1.75996 0.146253 1.85378L1.14625 2.85378C1.19269 2.90027 1.24783 2.93715 1.30853 2.96231C1.36923 2.98748 1.4343 3.00043 1.5 3.00043C1.56571 3.00043 1.63077 2.98748 1.69147 2.96231C1.75217 2.93715 1.80732 2.90027 1.85375 2.85378L3.85375 0.853784C3.94757 0.759964 4.00028 0.632716 4.00028 0.500034C4.00028 0.367352 3.94757 0.240104 3.85375 0.146284C3.75993 0.0524635 3.63269 -0.000244141 3.5 -0.000244141C3.36732 -0.000244141 3.24007 0.0524635 3.14625 0.146284ZM3.14625 4.14628L1.5 5.79316L0.853753 5.14628C0.759933 5.05246 0.632685 4.99976 0.500003 4.99976C0.367321 4.99976 0.240074 5.05246 0.146253 5.14628C0.052433 5.2401 -0.000274658 5.36735 -0.000274658 5.50003C-0.000274658 5.56573 0.0126654 5.63079 0.0378067 5.69148C0.0629481 5.75218 0.0997982 5.80733 0.146253 5.85378L1.14625 6.85378C1.19269 6.90027 1.24783 6.93715 1.30853 6.96231C1.36923 6.98748 1.4343 7.00043 1.5 7.00043C1.56571 7.00043 1.63077 6.98748 1.69147 6.96231C1.75217 6.93715 1.80732 6.90027 1.85375 6.85378L3.85375 4.85378C3.94757 4.75996 4.00028 4.63272 4.00028 4.50003C4.00028 4.36735 3.94757 4.2401 3.85375 4.14628C3.75993 4.05246 3.63269 3.99976 3.5 3.99976C3.36732 3.99976 3.24007 4.05246 3.14625 4.14628ZM3.14625 8.14628L1.5 9.79316L0.853753 9.14628C0.807298 9.09983 0.752148 9.06298 0.691452 9.03784C0.630755 9.0127 0.565701 8.99976 0.500003 8.99976C0.434306 8.99976 0.369252 9.0127 0.308555 9.03784C0.247859 9.06298 0.192708 9.09983 0.146253 9.14628C0.0997982 9.19274 0.0629481 9.24789 0.0378067 9.30859C0.0126654 9.36928 -0.000274658 9.43434 -0.000274658 9.50003C-0.000274658 9.56573 0.0126654 9.63079 0.0378067 9.69148C0.0629481 9.75218 0.0997982 9.80733 0.146253 9.85378L1.14625 10.8538C1.19269 10.9003 1.24783 10.9372 1.30853 10.9623C1.36923 10.9875 1.4343 11.0004 1.5 11.0004C1.56571 11.0004 1.63077 10.9875 1.69147 10.9623C1.75217 10.9372 1.80732 10.9003 1.85375 10.8538L3.85375 8.85378C3.94757 8.75996 4.00028 8.63272 4.00028 8.50003C4.00028 8.36735 3.94757 8.2401 3.85375 8.14628C3.75993 8.05246 3.63269 7.99976 3.5 7.99976C3.36732 7.99976 3.24007 8.05246 3.14625 8.14628Z" fill="white"/>
</svg>
