<svg width="15" height="15" viewBox="0 0 15 15" fill="none" xmlns="http://www.w3.org/2000/svg">
<path d="M11.3487 7.56625L8.12498 6.375L6.93748 3.14875C6.86716 2.95771 6.73992 2.79283 6.57295 2.67637C6.40598 2.5599 6.2073 2.49746 6.00373 2.49746C5.80015 2.49746 5.60147 2.5599 5.4345 2.67637C5.26753 2.79283 5.1403 2.95771 5.06998 3.14875L3.87498 6.375L0.648727 7.5625C0.457683 7.63282 0.292806 7.76005 0.176344 7.92702C0.0598806 8.094 -0.00256348 8.29267 -0.00256348 8.49625C-0.00256348 8.69983 0.0598806 8.8985 0.176344 9.06548C0.292806 9.23245 0.457683 9.35968 0.648727 9.43L3.87498 10.625L5.06248 13.8512C5.1328 14.0423 5.26003 14.2072 5.427 14.3236C5.59397 14.4401 5.79265 14.5025 5.99623 14.5025C6.1998 14.5025 6.39848 14.4401 6.56545 14.3236C6.73242 14.2072 6.85965 14.0423 6.92998 13.8512L8.12498 10.625L11.3512 9.4375C11.5423 9.36718 11.7071 9.23995 11.8236 9.07298C11.9401 8.906 12.0025 8.70733 12.0025 8.50375C12.0025 8.30017 11.9401 8.1015 11.8236 7.93452C11.7071 7.76755 11.5423 7.64032 11.3512 7.57L11.3487 7.56625ZM7.56248 9.76375C7.49461 9.78876 7.43297 9.8282 7.38183 9.87935C7.33068 9.9305 7.29124 9.99213 7.26623 10.06L5.99998 13.4906L4.73623 10.0625C4.71125 9.99392 4.67157 9.93163 4.61996 9.88002C4.56835 9.82841 4.50606 9.78872 4.43748 9.76375L1.00935 8.5L4.43748 7.23625C4.50606 7.21128 4.56835 7.17159 4.61996 7.11998C4.67157 7.06837 4.71125 7.00608 4.73623 6.9375L5.99998 3.50938L7.26373 6.9375C7.28874 7.00537 7.32818 7.067 7.37933 7.11815C7.43047 7.1693 7.49211 7.20874 7.55998 7.23375L10.9906 8.5L7.56248 9.76375ZM7.99998 2C7.99998 1.86739 8.05266 1.74021 8.14642 1.64645C8.24019 1.55268 8.36737 1.5 8.49998 1.5H9.49998V0.5C9.49998 0.367392 9.55266 0.240215 9.64642 0.146447C9.74019 0.0526784 9.86737 0 9.99998 0C10.1326 0 10.2598 0.0526784 10.3535 0.146447C10.4473 0.240215 10.5 0.367392 10.5 0.5V1.5H11.5C11.6326 1.5 11.7598 1.55268 11.8535 1.64645C11.9473 1.74021 12 1.86739 12 2C12 2.13261 11.9473 2.25979 11.8535 2.35355C11.7598 2.44732 11.6326 2.5 11.5 2.5H10.5V3.5C10.5 3.63261 10.4473 3.75979 10.3535 3.85355C10.2598 3.94732 10.1326 4 9.99998 4C9.86737 4 9.74019 3.94732 9.64642 3.85355C9.55266 3.75979 9.49998 3.63261 9.49998 3.5V2.5H8.49998C8.36737 2.5 8.24019 2.44732 8.14642 2.35355C8.05266 2.25979 7.99998 2.13261 7.99998 2ZM14.5 5C14.5 5.13261 14.4473 5.25979 14.3535 5.35355C14.2598 5.44732 14.1326 5.5 14 5.5H13.5V6C13.5 6.13261 13.4473 6.25979 13.3535 6.35355C13.2598 6.44732 13.1326 6.5 13 6.5C12.8674 6.5 12.7402 6.44732 12.6464 6.35355C12.5527 6.25979 12.5 6.13261 12.5 6V5.5H12C11.8674 5.5 11.7402 5.44732 11.6464 5.35355C11.5527 5.25979 11.5 5.13261 11.5 5C11.5 4.86739 11.5527 4.74021 11.6464 4.64645C11.7402 4.55268 11.8674 4.5 12 4.5H12.5V4C12.5 3.86739 12.5527 3.74021 12.6464 3.64645C12.7402 3.55268 12.8674 3.5 13 3.5C13.1326 3.5 13.2598 3.55268 13.3535 3.64645C13.4473 3.74021 13.5 3.86739 13.5 4V4.5H14C14.1326 4.5 14.2598 4.55268 14.3535 4.64645C14.4473 4.74021 14.5 4.86739 14.5 5Z" fill="white"/>
</svg>
